<svg width="794" height="520" viewBox="0 0 794 520" fill="none" xmlns="http://www.w3.org/2000/svg">
<path d="M28 166.6C28 156.733 31.3333 149.133 38 143.8C44.6667 138.2 53.8667 135.4 65.6 135.4L162.4 367.8L154.8 386.6L157.6 387.8L260 135.4C271.733 135.4 280.933 138.2 287.6 143.8C294.533 149.4 298 157.133 298 167V422.6C273.2 422.6 260.8 412.333 260.8 391.8V223.4L271.2 195.8L268 195L178.8 411.8C177.467 415 175.333 417.533 172.4 419.4C169.467 421.533 166.4 422.6 163.2 422.6C159.733 422.6 156.533 421.667 153.6 419.8C150.667 417.933 148.533 415.267 147.2 411.8L58 194.6L54.8 195.8L65.2 223V391.8C65.2 401.933 62 409.667 55.6 415C49.4667 420.067 40.2667 422.6 28 422.6V166.6Z" fill="#1E2A55"/>
<path d="M761.82 268.924L768 264.859C767.956 264.176 767.896 263.506 767.827 262.855C766.462 249.564 761.38 243 761.38 243C749.687 251.555 744.453 268.012 744.453 268.012L746.164 274.329L742.996 272.748C737.518 290.066 743.356 309.151 743.356 309.151C743.816 309.907 744.316 310.435 744.827 310.814C751.593 277.768 755.924 265.847 755.924 265.847C754.396 270.138 750.351 295.064 747.782 311.511C749.053 311.311 750.004 310.623 750.004 310.623C769.02 287.649 767.336 268.518 767.336 268.518C766.007 267.677 761.82 268.924 761.82 268.924Z" fill="#1E2A55"/>
<path d="M744.827 310.814C743.862 315.511 741.06 326.425 740 332L742.582 328.707C742.582 328.707 745.482 319.083 747.782 311.511C746.889 311.656 745.838 311.55 744.827 310.814Z" fill="#1E2A55"/>
<path d="M354.2 420.8C346.067 420.8 338.8 419.267 332.4 416.2C326 413 321 408.667 317.4 403.2C313.8 397.6 312 391.333 312 384.4V354.8C312 347.733 313.867 341.333 317.6 335.6C321.467 329.867 326.6 325.4 333 322.2C339.533 318.867 346.6 317.2 354.2 317.2C361.8 317.2 368.733 318.8 375 322C381.4 325.2 386.4 329.6 390 335.2C393.733 340.8 395.6 347.133 395.6 354.2V367C395.6 369.133 394.8 370.933 393.2 372.4C391.6 373.867 389.667 374.6 387.4 374.6H329V383.6C329 390.4 331.133 395.867 335.4 400C339.8 404.133 346.067 406.2 354.2 406.2C362.333 406.2 368.533 404.4 372.8 400.8C377.067 397.2 379.2 392.333 379.2 386.2C383.2 385.933 386.533 386.733 389.2 388.6C392 390.333 393.4 392.933 393.4 396.4C393.4 400.667 391.533 404.667 387.8 408.4C384.2 412.133 379.4 415.133 373.4 417.4C367.4 419.667 361 420.8 354.2 420.8ZM379.4 361V354.2C379.4 347.533 377.067 342.133 372.4 338C367.867 333.733 361.8 331.6 354.2 331.6C346.6 331.6 340.467 333.733 335.8 338C331.267 342.133 329 347.533 329 354.2V361H379.4ZM418.688 332C418.688 322.133 424.221 317.2 435.288 317.2V330C433.554 331.867 432.154 333.667 431.087 335.4L431.888 336.2C436.154 330.2 440.688 325.533 445.488 322.2C450.288 318.867 455.821 317.2 462.088 317.2C474.221 317.2 482.554 323 487.088 334.6C494.688 323 504.821 317.2 517.488 317.2C526.954 317.2 534.221 320.4 539.288 326.8C544.488 333.067 547.088 341.333 547.088 351.6V408C547.088 412.4 545.621 415.667 542.688 417.8C539.888 419.8 535.621 420.8 529.888 420.8V352.6C529.888 346.2 528.554 341.2 525.888 337.6C523.221 334 519.021 332.2 513.288 332.2C507.288 332.2 502.154 334.267 497.888 338.4C493.621 342.4 491.488 347.8 491.488 354.6V408C491.488 412.4 490.088 415.667 487.288 417.8C484.488 419.8 480.221 420.8 474.488 420.8V352.6C474.488 346.2 473.154 341.2 470.488 337.6C467.821 334 463.621 332.2 457.888 332.2C451.754 332.2 446.554 334.4 442.288 338.8C438.021 343.2 435.888 348.6 435.888 355V408C435.888 412.4 434.421 415.667 431.488 417.8C428.688 419.8 424.421 420.8 418.688 420.8V332ZM611.18 420.8C603.046 420.8 595.646 419.267 588.98 416.2C582.446 413.133 577.313 409 573.58 403.8C569.98 398.467 568.18 392.533 568.18 386V353.2C568.18 346.533 569.98 340.467 573.58 335C577.313 329.533 582.446 325.2 588.98 322C595.513 318.8 602.913 317.2 611.18 317.2C619.446 317.2 626.846 318.8 633.38 322C640.046 325.2 645.18 329.533 648.78 335C652.513 340.467 654.38 346.533 654.38 353.2V386C654.38 392.533 652.513 398.467 648.78 403.8C645.046 409 639.913 413.133 633.38 416.2C626.846 419.267 619.446 420.8 611.18 420.8ZM611.18 405.8C619.18 405.8 625.513 403.933 630.18 400.2C634.98 396.333 637.38 391.333 637.38 385.2V353.8C637.38 347.4 634.98 342.2 630.18 338.2C625.513 334.2 619.18 332.2 611.18 332.2C603.313 332.2 596.98 334.2 592.18 338.2C587.38 342.2 584.98 347.4 584.98 353.8V385.2C584.98 391.333 587.313 396.333 591.98 400.2C596.78 403.933 603.18 405.8 611.18 405.8ZM685.598 302.2C681.865 302.2 678.732 301 676.198 298.6C673.665 296.2 672.398 293.2 672.398 289.6C672.398 286 673.665 283.067 676.198 280.8C678.732 278.4 681.865 277.2 685.598 277.2C689.198 277.2 692.265 278.4 694.798 280.8C697.332 283.067 698.598 286 698.598 289.6C698.598 293.2 697.332 296.2 694.798 298.6C692.265 301 689.198 302.2 685.598 302.2ZM676.798 330C676.798 325.6 678.198 322.4 680.998 320.4C683.932 318.267 688.332 317.2 694.198 317.2V408C694.198 412.4 692.732 415.667 689.798 417.8C686.998 419.8 682.665 420.8 676.798 420.8V330ZM770.095 332.6C762.629 332.6 756.429 334.867 751.495 339.4C746.562 343.8 744.095 349.2 744.095 355.6V408C744.095 412.4 742.629 415.667 739.695 417.8C736.895 419.8 732.562 420.8 726.695 420.8V332C726.695 322.133 732.295 317.2 743.495 317.2V329.4C741.362 331.667 739.895 333.667 739.095 335.4L739.895 336.2C748.429 323.533 759.095 317.2 771.895 317.2C776.695 317.2 780.362 318.4 782.895 320.8C785.429 323.067 786.695 325.867 786.695 329.2C786.695 331.6 786.095 333.733 784.895 335.6C781.162 333.6 776.229 332.6 770.095 332.6Z" fill="#278166"/>
<path d="M332.4 416.2L331.953 417.094L331.96 417.098L331.968 417.102L332.4 416.2ZM317.4 403.2L316.559 403.741L316.565 403.75L317.4 403.2ZM317.6 335.6L316.771 335.041L316.766 335.048L316.762 335.054L317.6 335.6ZM333 322.2L333.447 323.094L333.454 323.091L333 322.2ZM375 322L374.545 322.891L374.553 322.894L375 322ZM390 335.2L389.159 335.741L389.163 335.748L389.168 335.755L390 335.2ZM393.2 372.4L393.876 373.137L393.876 373.137L393.2 372.4ZM329 374.6V373.6H328V374.6H329ZM335.4 400L334.704 400.718L334.71 400.724L334.715 400.729L335.4 400ZM379.2 386.2L379.133 385.202L378.2 385.264V386.2H379.2ZM389.2 388.6L388.627 389.419L388.65 389.435L388.674 389.45L389.2 388.6ZM387.8 408.4L387.093 407.693L387.086 407.699L387.08 407.706L387.8 408.4ZM373.4 417.4L373.047 416.465L373.047 416.465L373.4 417.4ZM379.4 361V362H380.4V361H379.4ZM372.4 338L371.715 338.728L371.726 338.739L371.737 338.749L372.4 338ZM335.8 338L336.474 338.739L336.475 338.738L335.8 338ZM329 361H328V362H329V361ZM354.2 419.8C346.194 419.8 339.079 418.291 332.832 415.298L331.968 417.102C338.521 420.242 345.939 421.8 354.2 421.8V419.8ZM332.847 415.306C326.589 412.177 321.73 407.956 318.235 402.65L316.565 403.75C320.27 409.377 325.411 413.823 331.953 417.094L332.847 415.306ZM318.241 402.659C314.749 397.227 313 391.15 313 384.4H311C311 391.517 312.851 397.973 316.559 403.741L318.241 402.659ZM313 384.4V354.8H311V384.4H313ZM313 354.8C313 347.92 314.814 341.711 318.438 336.146L316.762 335.054C312.919 340.956 311 347.546 311 354.8H313ZM318.429 336.159C322.196 330.574 327.196 326.22 333.447 323.094L332.553 321.306C326.004 324.58 320.737 329.16 316.771 335.041L318.429 336.159ZM333.454 323.091C339.842 319.832 346.752 318.2 354.2 318.2V316.2C346.448 316.2 339.225 317.901 332.546 321.309L333.454 323.091ZM354.2 318.2C361.655 318.2 368.43 319.768 374.545 322.891L375.455 321.109C369.036 317.832 361.945 316.2 354.2 316.2V318.2ZM374.553 322.894C380.805 326.02 385.663 330.303 389.159 335.741L390.841 334.659C387.137 328.897 381.995 324.38 375.447 321.106L374.553 322.894ZM389.168 335.755C392.786 341.182 394.6 347.32 394.6 354.2H396.6C396.6 346.946 394.681 340.418 390.832 334.645L389.168 335.755ZM394.6 354.2V367H396.6V354.2H394.6ZM394.6 367C394.6 368.848 393.922 370.382 392.524 371.663L393.876 373.137C395.678 371.485 396.6 369.419 396.6 367H394.6ZM392.524 371.663C391.118 372.952 389.429 373.6 387.4 373.6V375.6C389.905 375.6 392.083 374.781 393.876 373.137L392.524 371.663ZM387.4 373.6H329V375.6H387.4V373.6ZM328 374.6V383.6H330V374.6H328ZM328 383.6C328 390.628 330.214 396.369 334.704 400.718L336.096 399.282C332.052 395.365 330 390.172 330 383.6H328ZM334.715 400.729C339.357 405.09 345.902 407.2 354.2 407.2V405.2C346.231 405.2 340.243 403.177 336.085 399.271L334.715 400.729ZM354.2 407.2C362.464 407.2 368.931 405.373 373.445 401.564L372.155 400.036C368.136 403.427 362.203 405.2 354.2 405.2V407.2ZM373.445 401.564C377.961 397.754 380.2 392.595 380.2 386.2H378.2C378.2 392.072 376.173 396.646 372.155 400.036L373.445 401.564ZM379.267 387.198C383.093 386.943 386.187 387.711 388.627 389.419L389.773 387.781C386.88 385.755 383.307 384.924 379.133 385.202L379.267 387.198ZM388.674 389.45C391.161 390.99 392.4 393.258 392.4 396.4H394.4C394.4 392.609 392.839 389.677 389.726 387.75L388.674 389.45ZM392.4 396.4C392.4 400.341 390.686 404.1 387.093 407.693L388.507 409.107C392.381 405.233 394.4 400.992 394.4 396.4H392.4ZM387.08 407.706C383.604 411.31 378.94 414.238 373.047 416.465L373.753 418.335C379.86 416.029 384.796 412.956 388.52 409.094L387.08 407.706ZM373.047 416.465C367.166 418.686 360.887 419.8 354.2 419.8V421.8C361.113 421.8 367.634 420.647 373.753 418.335L373.047 416.465ZM380.4 361V354.2H378.4V361H380.4ZM380.4 354.2C380.4 347.27 377.96 341.589 373.063 337.251L371.737 338.749C376.173 342.678 378.4 347.797 378.4 354.2H380.4ZM373.085 337.272C368.327 332.794 361.995 330.6 354.2 330.6V332.6C361.605 332.6 367.406 334.673 371.715 338.728L373.085 337.272ZM354.2 330.6C346.403 330.6 340.012 332.794 335.125 337.262L336.475 338.738C340.921 334.673 346.797 332.6 354.2 332.6V330.6ZM335.126 337.261C330.366 341.601 328 347.279 328 354.2H330C330 347.787 332.168 342.665 336.474 338.739L335.126 337.261ZM328 354.2V361H330V354.2H328ZM329 362H379.4V360H329V362ZM435.288 317.2H436.288V316.2H435.288V317.2ZM435.288 330L436.02 330.68L436.288 330.393V330H435.288ZM431.087 335.4L430.236 334.876L429.822 335.549L430.38 336.107L431.087 335.4ZM431.888 336.2L431.18 336.907L432.017 337.744L432.702 336.78L431.888 336.2ZM445.488 322.2L444.917 321.379L444.917 321.379L445.488 322.2ZM487.088 334.6L486.156 334.964L486.862 336.769L487.924 335.148L487.088 334.6ZM539.288 326.8L538.503 327.421L538.511 327.43L538.518 327.439L539.288 326.8ZM542.688 417.8L543.269 418.614L543.276 418.609L542.688 417.8ZM529.888 420.8H528.888V421.8H529.888V420.8ZM525.888 337.6L525.084 338.195L525.084 338.195L525.888 337.6ZM497.888 338.4L498.571 339.13L498.577 339.124L498.583 339.118L497.888 338.4ZM487.288 417.8L487.869 418.614L487.881 418.605L487.894 418.595L487.288 417.8ZM474.488 420.8H473.488V421.8H474.488V420.8ZM470.488 337.6L471.291 337.005L471.291 337.005L470.488 337.6ZM431.488 417.8L432.069 418.614L432.076 418.609L431.488 417.8ZM418.688 420.8H417.688V421.8H418.688V420.8ZM419.688 332C419.688 327.252 421.013 323.866 423.503 321.646C426.014 319.407 429.882 318.2 435.288 318.2V316.2C429.627 316.2 425.194 317.459 422.172 320.154C419.128 322.867 417.688 326.881 417.688 332H419.688ZM434.288 317.2V330H436.288V317.2H434.288ZM434.555 329.32C432.787 331.223 431.344 333.075 430.236 334.876L431.939 335.924C432.964 334.259 434.321 332.51 436.02 330.68L434.555 329.32ZM430.38 336.107L431.18 336.907L432.595 335.493L431.795 334.693L430.38 336.107ZM432.702 336.78C436.919 330.85 441.374 326.274 446.058 323.021L444.917 321.379C440.001 324.792 435.39 329.55 431.073 335.62L432.702 336.78ZM446.058 323.021C450.678 319.813 456.009 318.2 462.088 318.2V316.2C455.632 316.2 449.897 317.92 444.917 321.379L446.058 323.021ZM462.088 318.2C467.991 318.2 472.898 319.609 476.866 322.371C480.837 325.134 483.945 329.306 486.156 334.964L488.019 334.236C485.697 328.294 482.372 323.766 478.009 320.729C473.644 317.691 468.318 316.2 462.088 316.2V318.2ZM487.924 335.148C495.36 323.798 505.194 318.2 517.488 318.2V316.2C504.447 316.2 494.015 322.202 486.251 334.052L487.924 335.148ZM517.488 318.2C526.704 318.2 533.658 321.3 538.503 327.421L540.072 326.179C534.784 319.5 527.205 316.2 517.488 316.2V318.2ZM538.518 327.439C543.534 333.483 546.088 341.504 546.088 351.6H548.088C548.088 341.162 545.441 332.65 540.057 326.161L538.518 327.439ZM546.088 351.6V408H548.088V351.6H546.088ZM546.088 408C546.088 412.157 544.718 415.087 542.099 416.991L543.276 418.609C546.524 416.246 548.088 412.643 548.088 408H546.088ZM542.106 416.986C539.555 418.808 535.538 419.8 529.888 419.8V421.8C535.704 421.8 540.22 420.792 543.269 418.614L542.106 416.986ZM530.888 420.8V352.6H528.888V420.8H530.888ZM530.888 352.6C530.888 346.074 529.53 340.837 526.691 337.005L525.084 338.195C527.579 341.563 528.888 346.326 528.888 352.6H530.888ZM526.691 337.005C523.784 333.081 519.24 331.2 513.288 331.2V333.2C518.802 333.2 522.657 334.919 525.084 338.195L526.691 337.005ZM513.288 331.2C507.031 331.2 501.647 333.366 497.192 337.682L498.583 339.118C502.661 335.168 507.544 333.2 513.288 333.2V331.2ZM497.204 337.67C492.702 341.891 490.488 347.573 490.488 354.6H492.488C492.488 348.027 494.54 342.909 498.571 339.13L497.204 337.67ZM490.488 354.6V408H492.488V354.6H490.488ZM490.488 408C490.488 412.174 489.172 415.107 486.681 417.005L487.894 418.595C491.003 416.226 492.488 412.626 492.488 408H490.488ZM486.706 416.986C484.155 418.808 480.138 419.8 474.488 419.8V421.8C480.304 421.8 484.82 420.792 487.869 418.614L486.706 416.986ZM475.488 420.8V352.6H473.488V420.8H475.488ZM475.488 352.6C475.488 346.074 474.13 340.837 471.291 337.005L469.684 338.195C472.179 341.563 473.488 346.326 473.488 352.6H475.488ZM471.291 337.005C468.384 333.081 463.84 331.2 457.888 331.2V333.2C463.402 333.2 467.257 334.919 469.684 338.195L471.291 337.005ZM457.888 331.2C451.484 331.2 446.025 333.509 441.57 338.104L443.005 339.496C447.084 335.291 452.025 333.2 457.888 333.2V331.2ZM441.57 338.104C437.113 342.699 434.888 348.353 434.888 355H436.888C436.888 348.847 438.928 343.701 443.005 339.496L441.57 338.104ZM434.888 355V408H436.888V355H434.888ZM434.888 408C434.888 412.157 433.518 415.087 430.899 416.991L432.076 418.609C435.324 416.246 436.888 412.643 436.888 408H434.888ZM430.906 416.986C428.355 418.808 424.338 419.8 418.688 419.8V421.8C424.504 421.8 429.02 420.792 432.069 418.614L430.906 416.986ZM419.688 420.8V332H417.688V420.8H419.688ZM588.98 416.2L588.555 417.105L588.562 417.108L588.98 416.2ZM573.58 403.8L572.751 404.359L572.759 404.371L572.767 404.383L573.58 403.8ZM573.58 335L572.754 334.436L572.749 334.443L572.745 334.45L573.58 335ZM588.98 322L588.54 321.102L588.54 321.102L588.98 322ZM633.38 322L632.94 322.898L632.947 322.902L633.38 322ZM648.78 335L647.945 335.55L647.949 335.557L647.954 335.564L648.78 335ZM648.78 403.8L649.592 404.383L649.599 404.373L648.78 403.8ZM633.38 416.2L632.955 415.295L633.38 416.2ZM630.18 400.2L630.804 400.981L630.807 400.979L630.18 400.2ZM630.18 338.2L629.529 338.959L629.54 338.968L630.18 338.2ZM591.98 400.2L591.342 400.97L591.354 400.98L591.366 400.989L591.98 400.2ZM611.18 419.8C603.175 419.8 595.92 418.292 589.398 415.292L588.562 417.108C595.373 420.242 602.918 421.8 611.18 421.8V419.8ZM589.405 415.295C583.006 412.291 578.014 408.261 574.392 403.217L572.767 404.383C576.612 409.739 581.887 413.975 588.555 417.105L589.405 415.295ZM574.409 403.241C570.922 398.075 569.18 392.337 569.18 386H567.18C567.18 392.729 569.037 398.858 572.751 404.359L574.409 403.241ZM569.18 386V353.2H567.18V386H569.18ZM569.18 353.2C569.18 346.725 570.924 340.85 574.415 335.55L572.745 334.45C569.035 340.083 567.18 346.342 567.18 353.2H569.18ZM574.405 335.564C578.032 330.254 583.026 326.03 589.42 322.898L588.54 321.102C581.867 324.37 576.594 328.813 572.754 334.436L574.405 335.564ZM589.42 322.898C595.798 319.774 603.045 318.2 611.18 318.2V316.2C602.781 316.2 595.228 317.826 588.54 321.102L589.42 322.898ZM611.18 318.2C619.315 318.2 626.561 319.774 632.94 322.898L633.82 321.102C627.132 317.826 619.578 316.2 611.18 316.2V318.2ZM632.947 322.902C639.472 326.033 644.457 330.254 647.945 335.55L649.615 334.45C645.903 328.813 640.621 324.367 633.812 321.098L632.947 322.902ZM647.954 335.564C651.573 340.863 653.38 346.733 653.38 353.2H655.38C655.38 346.334 653.453 340.07 649.605 334.436L647.954 335.564ZM653.38 353.2V386H655.38V353.2H653.38ZM653.38 386C653.38 392.329 651.576 398.062 647.96 403.227L649.599 404.373C653.45 398.871 655.38 392.738 655.38 386H653.38ZM647.967 403.217C644.346 408.261 639.354 412.291 632.955 415.295L633.805 417.105C640.472 413.975 645.747 409.739 649.592 404.383L647.967 403.217ZM632.955 415.295C626.572 418.291 619.321 419.8 611.18 419.8V421.8C619.572 421.8 627.12 420.243 633.805 417.105L632.955 415.295ZM611.18 406.8C619.33 406.8 625.908 404.898 630.804 400.981L629.555 399.419C625.118 402.969 619.029 404.8 611.18 404.8V406.8ZM630.807 400.979C635.841 396.923 638.38 391.638 638.38 385.2H636.38C636.38 391.029 634.118 395.743 629.552 399.421L630.807 400.979ZM638.38 385.2V353.8H636.38V385.2H638.38ZM638.38 353.8C638.38 347.112 635.854 341.627 630.82 337.432L629.54 338.968C634.105 342.773 636.38 347.688 636.38 353.8H638.38ZM630.83 337.441C625.934 333.244 619.345 331.2 611.18 331.2V333.2C619.014 333.2 625.092 335.156 629.529 338.959L630.83 337.441ZM611.18 331.2C603.141 331.2 596.562 333.247 591.54 337.432L592.82 338.968C597.398 335.153 603.485 333.2 611.18 333.2V331.2ZM591.54 337.432C586.505 341.627 583.98 347.112 583.98 353.8H585.98C585.98 347.688 588.254 342.773 592.82 338.968L591.54 337.432ZM583.98 353.8V385.2H585.98V353.8H583.98ZM583.98 385.2C583.98 391.627 586.443 396.911 591.342 400.97L592.618 399.43C588.184 395.756 585.98 391.04 585.98 385.2H583.98ZM591.366 400.989C596.39 404.897 603.028 406.8 611.18 406.8V404.8C603.332 404.8 597.17 402.97 592.594 399.411L591.366 400.989ZM676.198 298.6L676.886 297.874L676.886 297.874L676.198 298.6ZM676.198 280.8L676.865 281.545L676.876 281.536L676.886 281.526L676.198 280.8ZM694.798 280.8L694.111 281.526L694.121 281.536L694.132 281.545L694.798 280.8ZM694.798 298.6L694.111 297.874L694.111 297.874L694.798 298.6ZM680.998 320.4L681.58 321.214L681.587 321.209L680.998 320.4ZM694.198 317.2H695.198V316.2H694.198V317.2ZM689.798 417.8L690.38 418.614L690.387 418.609L689.798 417.8ZM676.798 420.8H675.798V421.8H676.798V420.8ZM685.598 301.2C682.101 301.2 679.22 300.085 676.886 297.874L675.511 299.326C678.244 301.915 681.629 303.2 685.598 303.2V301.2ZM676.886 297.874C674.559 295.67 673.398 292.935 673.398 289.6H671.398C671.398 293.465 672.771 296.73 675.511 299.326L676.886 297.874ZM673.398 289.6C673.398 286.266 674.558 283.61 676.865 281.545L675.532 280.055C672.773 282.523 671.398 285.734 671.398 289.6H673.398ZM676.886 281.526C679.22 279.315 682.101 278.2 685.598 278.2V276.2C681.629 276.2 678.244 277.485 675.511 280.074L676.886 281.526ZM685.598 278.2C688.952 278.2 691.77 279.308 694.111 281.526L695.486 280.074C692.761 277.492 689.445 276.2 685.598 276.2V278.2ZM694.132 281.545C696.439 283.61 697.598 286.266 697.598 289.6H699.598C699.598 285.734 698.224 282.523 695.465 280.055L694.132 281.545ZM697.598 289.6C697.598 292.935 696.438 295.67 694.111 297.874L695.486 299.326C698.226 296.73 699.598 293.465 699.598 289.6H697.598ZM694.111 297.874C691.77 300.092 688.952 301.2 685.598 301.2V303.2C689.445 303.2 692.761 301.908 695.486 299.326L694.111 297.874ZM677.798 330C677.798 325.823 679.114 322.975 681.58 321.214L680.417 319.586C677.282 321.825 675.798 325.377 675.798 330H677.798ZM681.587 321.209C684.273 319.255 688.423 318.2 694.198 318.2V316.2C688.24 316.2 683.591 317.278 680.41 319.591L681.587 321.209ZM693.198 317.2V408H695.198V317.2H693.198ZM693.198 408C693.198 412.157 691.828 415.087 689.21 416.991L690.387 418.609C693.635 416.246 695.198 412.643 695.198 408H693.198ZM689.217 416.986C686.669 418.806 682.588 419.8 676.798 419.8V421.8C682.742 421.8 687.328 420.794 690.38 418.614L689.217 416.986ZM677.798 420.8V330H675.798V420.8H677.798ZM751.495 339.4L752.161 340.146L752.166 340.141L752.172 340.136L751.495 339.4ZM739.695 417.8L740.277 418.614L740.283 418.609L739.695 417.8ZM726.695 420.8H725.695V421.8H726.695V420.8ZM743.495 317.2H744.495V316.2H743.495V317.2ZM743.495 329.4L744.224 330.085L744.495 329.797V329.4H743.495ZM739.095 335.4L738.187 334.981L737.895 335.614L738.388 336.107L739.095 335.4ZM739.895 336.2L739.188 336.907L740.046 337.765L740.725 336.759L739.895 336.2ZM782.895 320.8L782.208 321.526L782.218 321.536L782.229 321.545L782.895 320.8ZM784.895 335.6L784.423 336.481L785.237 336.918L785.736 336.141L784.895 335.6ZM770.095 331.6C762.409 331.6 755.958 333.941 750.819 338.664L752.172 340.136C756.899 335.792 762.848 333.6 770.095 333.6V331.6ZM750.83 338.654C745.692 343.236 743.095 348.904 743.095 355.6H745.095C745.095 349.496 747.432 344.364 752.161 340.146L750.83 338.654ZM743.095 355.6V408H745.095V355.6H743.095ZM743.095 408C743.095 412.157 741.725 415.087 739.107 416.991L740.283 418.609C743.532 416.246 745.095 412.643 745.095 408H743.095ZM739.114 416.986C736.566 418.806 732.485 419.8 726.695 419.8V421.8C732.639 421.8 737.224 420.794 740.277 418.614L739.114 416.986ZM727.695 420.8V332H725.695V420.8H727.695ZM727.695 332C727.695 327.256 729.036 323.871 731.556 321.65C734.101 319.409 738.02 318.2 743.495 318.2V316.2C737.77 316.2 733.289 317.458 730.234 320.15C727.155 322.862 725.695 326.877 725.695 332H727.695ZM742.495 317.2V329.4H744.495V317.2H742.495ZM742.767 328.715C740.6 331.017 739.052 333.108 738.187 334.981L740.003 335.819C740.739 334.226 742.124 332.316 744.224 330.085L742.767 328.715ZM738.388 336.107L739.188 336.907L740.602 335.493L739.802 334.693L738.388 336.107ZM740.725 336.759C749.113 324.307 759.496 318.2 771.895 318.2V316.2C758.695 316.2 747.744 322.76 739.066 335.641L740.725 336.759ZM771.895 318.2C776.537 318.2 779.92 319.359 782.208 321.526L783.583 320.074C780.804 317.441 776.854 316.2 771.895 316.2V318.2ZM782.229 321.545C784.555 323.626 785.695 326.158 785.695 329.2H787.695C787.695 325.576 786.303 322.507 783.562 320.055L782.229 321.545ZM785.695 329.2C785.695 331.425 785.142 333.367 784.054 335.059L785.736 336.141C787.049 334.1 787.695 331.775 787.695 329.2H785.695ZM785.368 334.719C781.438 332.614 776.325 331.6 770.095 331.6V333.6C776.133 333.6 780.886 334.586 784.423 336.481L785.368 334.719Z" fill="#1A3595" fill-opacity="0.54"/>
</svg>
